<svg id="svg" version="1.1" xmlns="http://www.w3.org/2000/svg" xmlns:xlink="http://www.w3.org/1999/xlink" width="400" height="400" viewBox="0, 0, 400,400"><g id="svgg"><path id="path0" d="M196.200 30.249 C 180.732 30.846,165.836 33.376,153.400 37.519 C 144.167 40.596,131.208 46.595,126.338 50.047 C 125.754 50.461,125.176 50.800,125.052 50.800 C 124.929 50.800,124.124 51.295,123.262 51.900 C 122.401 52.505,120.549 53.793,119.148 54.762 C 108.078 62.415,92.428 78.549,86.200 88.727 C 85.980 89.087,85.159 90.375,84.376 91.591 C 77.648 102.028,71.096 117.540,67.984 130.400 C 61.602 156.772,61.598 191.222,67.974 215.200 C 68.178 215.970,68.466 217.050,68.613 217.600 C 69.297 220.163,71.285 226.684,71.602 227.400 C 71.796 227.840,72.399 229.460,72.941 231.000 C 78.202 245.936,87.486 261.087,97.637 271.300 C 102.417 276.109,102.454 276.026,96.161 274.638 C 91.036 273.508,82.166 272.000,80.646 272.000 L 79.582 272.000 79.691 279.300 L 79.800 286.600 80.800 286.698 C 95.519 288.135,120.457 294.256,131.200 299.067 C 143.497 304.573,153.002 309.645,168.800 319.129 C 177.307 324.237,186.463 329.600,186.675 329.600 C 186.786 329.600,187.354 329.933,187.938 330.339 C 188.522 330.745,189.990 331.619,191.200 332.280 C 192.410 332.941,194.075 333.869,194.900 334.341 C 199.559 337.009,200.282 337.412,205.400 340.195 C 224.226 350.434,246.799 360.928,257.000 364.184 C 270.895 368.618,286.731 370.765,293.923 369.189 C 298.746 368.132,299.988 367.815,302.600 366.979 C 305.580 366.026,308.582 364.874,311.568 363.539 C 314.066 362.422,333.412 352.733,335.400 351.602 C 336.280 351.102,338.440 349.933,340.200 349.005 C 354.080 341.683,353.744 341.911,353.053 340.293 C 351.656 337.020,348.732 331.205,348.371 330.982 C 348.005 330.756,346.269 331.189,341.710 332.644 C 338.315 333.728,328.177 336.348,324.200 337.169 C 322.880 337.442,321.080 337.818,320.200 338.006 C 306.478 340.928,291.124 341.209,277.600 338.785 C 270.893 337.582,262.465 335.720,257.800 334.409 C 257.140 334.223,255.183 333.687,253.452 333.218 C 251.720 332.748,248.480 331.769,246.252 331.042 C 244.023 330.314,241.300 329.434,240.200 329.086 C 237.042 328.085,227.150 324.568,224.766 323.598 C 223.575 323.113,221.587 322.285,220.350 321.758 C 219.112 321.231,217.976 320.800,217.824 320.800 C 217.673 320.800,216.565 320.350,215.363 319.800 C 214.160 319.250,212.999 318.800,212.783 318.800 C 212.566 318.800,212.077 318.635,211.695 318.433 C 210.255 317.671,207.193 316.400,206.799 316.400 C 206.574 316.400,206.077 316.235,205.695 316.033 C 204.092 315.185,201.171 314.000,200.684 314.000 C 200.396 314.000,199.989 313.842,199.780 313.649 C 199.571 313.456,198.410 312.938,197.200 312.497 C 191.954 310.587,169.363 301.455,169.000 301.097 C 168.581 300.684,170.069 300.821,174.600 301.612 C 192.456 304.728,208.817 305.035,223.600 302.530 C 228.994 301.617,230.888 301.249,232.600 300.783 C 233.480 300.543,234.830 300.191,235.600 300.000 C 239.039 299.148,242.711 298.016,244.600 297.225 C 245.040 297.040,247.110 296.213,249.200 295.385 C 253.401 293.722,261.982 289.552,263.653 288.362 C 264.242 287.943,264.838 287.600,264.977 287.600 C 266.731 287.600,281.867 275.686,288.169 269.346 C 300.007 257.435,306.517 248.484,313.524 234.485 C 332.979 195.610,334.344 137.418,316.724 98.000 C 309.703 82.292,299.581 68.307,288.200 58.591 C 286.660 57.276,285.310 56.110,285.200 56.000 C 284.090 54.890,277.168 50.113,273.521 47.941 C 264.805 42.748,254.409 38.384,244.000 35.546 C 238.488 34.043,237.480 33.815,230.200 32.419 C 222.102 30.866,206.325 29.859,196.200 30.249 M202.400 49.019 C 208.439 49.605,212.577 50.144,214.200 50.558 C 214.640 50.670,216.256 51.059,217.791 51.422 C 247.709 58.503,270.105 80.906,280.749 114.400 C 280.994 115.170,281.487 116.700,281.844 117.800 C 283.603 123.205,285.762 132.526,287.172 140.800 C 290.173 158.405,289.811 187.932,286.406 203.400 C 286.212 204.280,285.837 206.170,285.573 207.600 C 285.309 209.030,284.833 211.190,284.515 212.400 C 282.806 218.907,282.392 220.423,281.675 222.800 C 279.635 229.562,275.520 239.744,273.061 244.115 C 272.540 245.042,271.726 246.484,271.253 247.319 C 261.707 264.172,246.624 276.904,228.400 283.492 C 222.153 285.751,218.184 286.676,208.800 288.064 C 204.467 288.705,190.112 288.709,185.400 288.070 C 176.368 286.847,171.737 285.620,162.339 281.962 C 153.275 278.434,139.781 268.088,132.617 259.174 C 126.811 251.950,117.200 236.153,117.200 233.835 C 117.200 233.701,116.822 232.738,116.360 231.696 C 110.902 219.377,107.455 204.690,105.119 183.800 C 104.437 177.695,104.437 151.118,105.120 145.600 C 107.880 123.291,112.818 107.120,121.803 90.964 C 131.090 74.263,145.220 61.706,162.000 55.241 C 163.870 54.521,165.796 53.775,166.281 53.583 C 171.512 51.514,180.339 49.737,189.800 48.849 C 195.074 48.353,195.618 48.361,202.400 49.019 " stroke="none" fill="#fafbfb" fill-rule="evenodd"></path><path id="path1" d="M27.000 0.800 C 26.864 1.020,26.133 1.200,25.376 1.200 C 24.619 1.200,24.000 1.380,24.000 1.600 C 24.000 1.820,23.640 2.000,23.200 2.000 C 22.760 2.000,22.400 2.180,22.400 2.400 C 22.400 2.620,22.040 2.800,21.600 2.800 C 21.160 2.800,20.800 2.980,20.800 3.200 C 20.800 3.420,20.440 3.600,20.000 3.600 C 19.560 3.600,19.200 3.780,19.200 4.000 C 19.200 4.220,18.840 4.400,18.400 4.400 C 17.960 4.400,17.600 4.580,17.600 4.800 C 17.600 5.020,17.312 5.200,16.960 5.200 C 16.609 5.200,15.817 5.740,15.200 6.400 C 14.583 7.060,13.867 7.600,13.608 7.600 C 13.028 7.600,10.549 10.146,9.200 12.126 C 8.650 12.934,8.065 13.596,7.900 13.597 C 7.735 13.599,7.600 13.960,7.600 14.400 C 7.600 14.840,7.420 15.200,7.200 15.200 C 6.980 15.200,6.800 15.560,6.800 16.000 C 6.800 16.440,6.620 16.800,6.400 16.800 C 6.180 16.800,6.000 17.160,6.000 17.600 C 6.000 18.040,5.820 18.400,5.600 18.400 C 5.380 18.400,5.200 18.760,5.200 19.200 C 5.200 19.640,5.020 20.000,4.800 20.000 C 4.580 20.000,4.400 20.540,4.400 21.200 C 4.400 21.860,4.220 22.400,4.000 22.400 C 3.780 22.400,3.600 22.940,3.600 23.600 C 3.600 24.260,3.420 24.800,3.200 24.800 C 2.645 24.800,2.645 374.257,3.200 374.600 C 3.420 374.736,3.600 375.467,3.600 376.224 C 3.600 376.981,3.780 377.600,4.000 377.600 C 4.220 377.600,4.400 378.039,4.400 378.576 C 4.400 379.113,4.580 379.664,4.800 379.800 C 5.020 379.936,5.200 380.397,5.200 380.824 C 5.200 381.251,5.380 381.600,5.600 381.600 C 5.820 381.600,6.000 381.960,6.000 382.400 C 6.000 382.840,6.180 383.200,6.400 383.200 C 6.620 383.200,6.800 383.494,6.800 383.853 C 6.800 384.212,7.116 384.797,7.503 385.153 C 7.889 385.509,8.459 386.294,8.769 386.897 C 9.468 388.258,14.589 393.200,15.301 393.200 C 15.588 393.200,16.083 393.560,16.400 394.000 C 16.717 394.440,17.297 394.800,17.688 394.800 C 18.080 394.800,18.400 394.980,18.400 395.200 C 18.400 395.420,18.760 395.600,19.200 395.600 C 19.640 395.600,20.000 395.780,20.000 396.000 C 20.000 396.220,20.360 396.400,20.800 396.400 C 21.240 396.400,21.600 396.580,21.600 396.800 C 21.600 397.020,21.960 397.200,22.400 397.200 C 22.840 397.200,23.200 397.380,23.200 397.600 C 23.200 397.820,23.830 398.000,24.600 398.000 C 25.370 398.000,26.000 398.180,26.000 398.400 C 26.000 398.620,26.900 398.800,28.000 398.800 C 29.100 398.800,30.000 398.980,30.000 399.200 C 30.000 399.466,86.933 399.600,200.000 399.600 C 313.067 399.600,370.000 399.466,370.000 399.200 C 370.000 398.980,370.900 398.800,372.000 398.800 C 373.100 398.800,374.000 398.620,374.000 398.400 C 374.000 398.180,374.630 398.000,375.400 398.000 C 376.170 398.000,376.800 397.820,376.800 397.600 C 376.800 397.380,377.160 397.200,377.600 397.200 C 378.040 397.200,378.400 397.020,378.400 396.800 C 378.400 396.580,378.760 396.400,379.200 396.400 C 379.640 396.400,380.000 396.220,380.000 396.000 C 380.000 395.780,380.360 395.600,380.800 395.600 C 381.240 395.600,381.600 395.420,381.600 395.200 C 381.600 394.980,381.920 394.800,382.312 394.800 C 382.703 394.800,383.283 394.440,383.600 394.000 C 383.917 393.560,384.415 393.200,384.706 393.200 C 384.998 393.200,385.660 392.795,386.178 392.300 C 390.401 388.263,391.212 387.393,391.447 386.648 C 391.594 386.182,392.049 385.509,392.457 385.153 C 392.866 384.797,393.200 384.212,393.200 383.853 C 393.200 383.494,393.380 383.200,393.600 383.200 C 393.820 383.200,394.000 382.840,394.000 382.400 C 394.000 381.960,394.180 381.600,394.400 381.600 C 394.620 381.600,394.800 381.240,394.800 380.800 C 394.800 380.360,394.980 380.000,395.200 380.000 C 395.420 380.000,395.600 379.460,395.600 378.800 C 395.600 378.140,395.780 377.600,396.000 377.600 C 396.220 377.600,396.400 376.981,396.400 376.224 C 396.400 375.467,396.580 374.736,396.800 374.600 C 397.020 374.464,397.200 372.833,397.200 370.976 C 397.200 368.992,397.365 367.600,397.600 367.600 C 397.866 367.600,398.000 311.333,398.000 199.600 C 398.000 87.867,397.866 31.600,397.600 31.600 C 397.365 31.600,397.200 30.200,397.200 28.200 C 397.200 26.200,397.035 24.800,396.800 24.800 C 396.580 24.800,396.400 24.181,396.400 23.424 C 396.400 22.667,396.220 21.936,396.000 21.800 C 395.780 21.664,395.600 21.203,395.600 20.776 C 395.600 20.349,395.420 20.000,395.200 20.000 C 394.980 20.000,394.800 19.657,394.800 19.238 C 394.800 18.331,393.192 15.200,392.726 15.200 C 392.547 15.200,392.400 14.840,392.400 14.400 C 392.400 13.960,392.259 13.600,392.086 13.600 C 391.914 13.600,391.480 13.105,391.122 12.500 C 390.238 11.006,386.984 7.600,386.440 7.600 C 386.198 7.600,386.000 7.420,386.000 7.200 C 386.000 6.980,385.770 6.800,385.488 6.800 C 385.207 6.800,384.717 6.440,384.400 6.000 C 384.083 5.560,383.503 5.200,383.112 5.200 C 382.720 5.200,382.400 5.020,382.400 4.800 C 382.400 4.580,382.040 4.400,381.600 4.400 C 381.160 4.400,380.800 4.220,380.800 4.000 C 380.800 3.780,380.440 3.600,380.000 3.600 C 379.560 3.600,379.200 3.420,379.200 3.200 C 379.200 2.980,378.840 2.800,378.400 2.800 C 377.960 2.800,377.600 2.620,377.600 2.400 C 377.600 2.180,377.240 2.000,376.800 2.000 C 376.360 2.000,376.000 1.820,376.000 1.600 C 376.000 1.380,375.381 1.200,374.624 1.200 C 373.867 1.200,373.136 1.020,373.000 0.800 C 372.657 0.245,27.343 0.245,27.000 0.800 M217.600 30.818 C 224.250 31.367,227.145 31.792,235.200 33.402 C 238.374 34.037,239.220 34.243,244.000 35.546 C 254.409 38.384,264.805 42.748,273.521 47.941 C 277.168 50.113,284.090 54.890,285.200 56.000 C 285.310 56.110,286.660 57.276,288.200 58.591 C 299.581 68.307,309.703 82.292,316.724 98.000 C 334.344 137.418,332.979 195.610,313.524 234.485 C 304.292 252.931,291.882 267.884,275.200 280.662 C 272.237 282.932,265.358 287.600,264.977 287.600 C 264.838 287.600,264.242 287.943,263.653 288.362 C 261.982 289.552,253.401 293.722,249.200 295.385 C 247.110 296.213,245.040 297.040,244.600 297.225 C 242.711 298.016,239.039 299.148,235.600 300.000 C 234.830 300.191,233.480 300.543,232.600 300.783 C 230.888 301.249,228.994 301.617,223.600 302.530 C 208.817 305.035,192.456 304.728,174.600 301.612 C 170.069 300.821,168.581 300.684,169.000 301.097 C 169.363 301.455,191.954 310.587,197.200 312.497 C 198.410 312.938,199.571 313.456,199.780 313.649 C 199.989 313.842,200.396 314.000,200.684 314.000 C 201.171 314.000,204.092 315.185,205.695 316.033 C 206.077 316.235,206.574 316.400,206.799 316.400 C 207.193 316.400,210.255 317.671,211.695 318.433 C 212.077 318.635,212.566 318.800,212.783 318.800 C 212.999 318.800,214.160 319.250,215.363 319.800 C 216.565 320.350,217.673 320.800,217.824 320.800 C 217.976 320.800,219.112 321.231,220.350 321.758 C 221.587 322.285,223.575 323.113,224.766 323.598 C 227.150 324.568,237.042 328.085,240.200 329.086 C 241.300 329.434,244.023 330.314,246.252 331.042 C 248.480 331.769,251.720 332.748,253.452 333.218 C 255.183 333.687,257.140 334.223,257.800 334.409 C 261.103 335.337,268.644 337.077,273.200 337.963 C 290.158 341.258,304.865 341.272,320.200 338.006 C 321.080 337.818,322.880 337.442,324.200 337.169 C 328.177 336.348,338.315 333.728,341.710 332.644 C 346.269 331.189,348.005 330.756,348.371 330.982 C 348.732 331.205,351.656 337.020,353.053 340.293 C 353.744 341.911,354.080 341.683,340.200 349.005 C 338.440 349.933,336.280 351.102,335.400 351.602 C 326.669 356.565,308.441 365.110,302.600 366.979 C 299.988 367.815,298.746 368.132,293.923 369.189 C 286.731 370.765,270.895 368.618,257.000 364.184 C 249.772 361.877,235.893 355.767,221.400 348.512 C 214.242 344.929,211.103 343.297,205.400 340.195 C 200.282 337.412,199.559 337.009,194.900 334.341 C 194.075 333.869,192.410 332.941,191.200 332.280 C 189.990 331.619,188.522 330.745,187.938 330.339 C 187.354 329.933,186.786 329.600,186.675 329.600 C 186.463 329.600,177.307 324.237,168.800 319.129 C 153.002 309.645,143.497 304.573,131.200 299.067 C 120.457 294.256,95.519 288.135,80.800 286.698 L 79.800 286.600 79.691 279.300 L 79.582 272.000 80.646 272.000 C 82.166 272.000,91.036 273.508,96.161 274.638 C 102.454 276.026,102.417 276.109,97.637 271.300 C 87.486 261.087,78.202 245.936,72.941 231.000 C 72.399 229.460,71.796 227.840,71.602 227.400 C 71.285 226.684,69.297 220.163,68.613 217.600 C 68.466 217.050,68.178 215.970,67.974 215.200 C 61.598 191.222,61.602 156.772,67.984 130.400 C 71.096 117.540,77.648 102.028,84.376 91.591 C 85.159 90.375,85.980 89.087,86.200 88.727 C 92.428 78.549,108.078 62.415,119.148 54.762 C 120.549 53.793,122.401 52.505,123.262 51.900 C 124.124 51.295,124.929 50.800,125.052 50.800 C 125.176 50.800,125.754 50.461,126.338 50.047 C 131.208 46.595,144.167 40.596,153.400 37.519 C 171.917 31.350,194.923 28.948,217.600 30.818 M189.800 48.849 C 180.339 49.737,171.512 51.514,166.281 53.583 C 165.796 53.775,163.870 54.521,162.000 55.241 C 140.988 63.337,126.070 79.009,115.395 104.200 C 110.389 116.014,107.182 128.937,105.120 145.600 C 104.437 151.118,104.437 177.695,105.119 183.800 C 107.455 204.690,110.902 219.377,116.360 231.696 C 116.822 232.738,117.200 233.701,117.200 233.835 C 117.200 236.153,126.811 251.950,132.617 259.174 C 139.781 268.088,153.275 278.434,162.339 281.962 C 175.540 287.100,183.223 288.555,197.200 288.563 C 204.739 288.567,207.353 288.355,214.800 287.136 C 238.058 283.329,259.370 268.298,271.253 247.319 C 271.726 246.484,272.540 245.042,273.061 244.115 C 275.520 239.744,279.635 229.562,281.675 222.800 C 282.392 220.423,282.806 218.907,284.515 212.400 C 284.833 211.190,285.309 209.030,285.573 207.600 C 285.837 206.170,286.212 204.280,286.406 203.400 C 289.449 189.579,290.110 165.727,287.976 146.800 C 287.132 139.317,285.307 130.184,282.820 121.000 C 282.641 120.340,282.202 118.900,281.844 117.800 C 281.487 116.700,280.994 115.170,280.749 114.400 C 270.105 80.906,247.709 58.503,217.791 51.422 C 216.256 51.059,214.640 50.670,214.200 50.558 C 211.631 49.903,197.470 48.375,194.800 48.464 C 194.030 48.490,191.780 48.663,189.800 48.849 " stroke="none" fill="#3464cc" fill-rule="evenodd"></path></g></svg>